<?xml version="1.0" encoding="utf-8"?>
<!-- Generator: Adobe Illustrator 22.1.0, SVG Export Plug-In . SVG Version: 6.00 Build 0)  -->
<svg version="1.1" id="Layer_1" xmlns="http://www.w3.org/2000/svg" xmlns:xlink="http://www.w3.org/1999/xlink" x="0px" y="0px"
	 viewBox="0 0 32 32" style="enable-background:new 0 0 32 32;" xml:space="preserve">
<style type="text/css">
	.st0{fill:#FF9292;}
	.st1{fill:#E87E7E;}
	.st2{fill:#FFC3C3;}
	.st3{fill:#91D4FE;}
	.st4{fill:#63A7D3;}
	.st5{fill:#C1E7FF;}
	.st6{fill:#FFFFFF;}
	.st7{fill:#83D6B9;}
	.st8{fill:#46C68C;}
	.st9{fill:#BBE8D8;}
	.st10{fill:#FEB17D;}
	.st11{fill:#DD9666;}
	.st12{fill:#FED4B7;}
	.st13{fill:#F2A2A2;}
	.st14{fill:#F1C5C5;}
	.st15{fill:#DBB663;}
	.st16{fill:#CEA151;}
	.st17{fill:#EBD7A9;}
	.st18{fill:#CECECE;}
	.st19{fill:#B7B7B7;}
	.st20{fill:#E4E4E4;}
	.st21{fill:#65AAD1;}
	.st22{fill:#E57A7A;}
	.st23{fill:#E6A6E8;}
	.st24{fill:#D68AD6;}
	.st25{fill:#FFCCFE;}
	.st26{fill:#98CE5F;}
	.st27{fill:#8CAF2C;}
	.st28{fill:#C6E3A7;}
	.st29{fill:#FFB578;}
	.st30{fill:#ED9F64;}
	.st31{fill:#FFD6B5;}
	.st32{fill:#F4A1EF;}
	.st33{fill:#DD87DD;}
	.st34{fill:#F9CBF6;}
	.st35{fill:#A8A2F4;}
	.st36{fill:#8885E8;}
	.st37{fill:#CFCCF8;}
	.st38{fill:#BCBCBC;}
	.st39{fill:#A8A8A8;}
	.st40{fill:#DADADA;}
	.st41{fill:#77CCDB;}
	.st42{fill:#4DBCC1;}
	.st43{fill:#B4E3EB;}
	.st44{fill:#FFB7A4;}
	.st45{fill:#F69A7B;}
	.st46{fill:#FFD7CD;}
	.st47{fill:#71C8F4;}
	.st48{fill:#8DC977;}
	.st49{fill:#7CA851;}
	.st50{opacity:0.45;fill:#FFFFFF;}
</style>
<g>
	<path class="st3" d="M29.5,27.5h-27c-1.1,0-2-0.9-2-2v-19c0-1.1,0.9-2,2-2h10.4l3.5,3.1h13.2c1.1,0,2,0.9,2,2v15.9
		C31.5,26.6,30.6,27.5,29.5,27.5z"/>
	<path class="st4" d="M29.5,28h-27C1.1,28,0,26.9,0,25.5v-19C0,5.1,1.1,4,2.5,4h10.6l3.5,3.1h13c1.4,0,2.5,1.1,2.5,2.5v15.9
		C32,26.9,30.9,28,29.5,28z M2.5,5C1.7,5,1,5.7,1,6.5v19C1,26.3,1.7,27,2.5,27h27c0.8,0,1.5-0.7,1.5-1.5V9.6c0-0.8-0.7-1.5-1.5-1.5
		H16.2L12.7,5H2.5z"/>
</g>
</svg>
