<?xml version="1.0" encoding="utf-8"?>
<!-- Generator: Adobe Illustrator 22.1.0, SVG Export Plug-In . SVG Version: 6.00 Build 0)  -->
<svg version="1.1" id="Layer_1" xmlns="http://www.w3.org/2000/svg" xmlns:xlink="http://www.w3.org/1999/xlink" x="0px" y="0px"
	 viewBox="0 0 32 32" style="enable-background:new 0 0 32 32;" xml:space="preserve">
<style type="text/css">
	.st0{fill:#FF9292;}
	.st1{fill:#E87E7E;}
	.st2{fill:#FFC3C3;}
	.st3{fill:#91D4FE;}
	.st4{fill:#63A7D3;}
	.st5{fill:#C1E7FF;}
	.st6{fill:#FFFFFF;}
	.st7{fill:#83D6B9;}
	.st8{fill:#46C68C;}
	.st9{fill:#BBE8D8;}
	.st10{fill:#FEB17D;}
	.st11{fill:#DD9666;}
	.st12{fill:#FED4B7;}
	.st13{fill:#F2A2A2;}
	.st14{fill:#F1C5C5;}
	.st15{fill:#DBB663;}
	.st16{fill:#CEA151;}
	.st17{fill:#EBD7A9;}
	.st18{fill:#CECECE;}
	.st19{fill:#B7B7B7;}
	.st20{fill:#E4E4E4;}
	.st21{fill:#65AAD1;}
	.st22{fill:#E57A7A;}
	.st23{fill:#E6A6E8;}
	.st24{fill:#D68AD6;}
	.st25{fill:#FFCCFE;}
	.st26{fill:#98CE5F;}
	.st27{fill:#8CAF2C;}
	.st28{fill:#C6E3A7;}
	.st29{fill:#FFB578;}
	.st30{fill:#ED9F64;}
	.st31{fill:#FFD6B5;}
	.st32{fill:#F4A1EF;}
	.st33{fill:#DD87DD;}
	.st34{fill:#F9CBF6;}
	.st35{fill:#A8A2F4;}
	.st36{fill:#8885E8;}
	.st37{fill:#CFCCF8;}
	.st38{fill:#BCBCBC;}
	.st39{fill:#A8A8A8;}
	.st40{fill:#DADADA;}
	.st41{fill:#77CCDB;}
	.st42{fill:#4DBCC1;}
	.st43{fill:#B4E3EB;}
	.st44{fill:#FFB7A4;}
	.st45{fill:#F69A7B;}
	.st46{fill:#FFD7CD;}
	.st47{fill:#71C8F4;}
	.st48{fill:#8DC977;}
	.st49{fill:#7CA851;}
	.st50{opacity:0.45;fill:#FFFFFF;}
</style>
<g>
	<path class="st35" d="M21.5,0.5h-17c-1.1,0-2,0.9-2,2v27c0,1.1,0.9,2,2,2h23c1.1,0,2-0.9,2-2v-21L21.5,0.5z"/>
	<path class="st36" d="M27.5,32h-23C3.1,32,2,30.9,2,29.5v-27C2,1.1,3.1,0,4.5,0h17.2L30,8.3v21.2C30,30.9,28.9,32,27.5,32z M4.5,1
		C3.7,1,3,1.7,3,2.5v27C3,30.3,3.7,31,4.5,31h23c0.8,0,1.5-0.7,1.5-1.5V8.7L21.3,1H4.5z"/>
</g>
<g>
	<path class="st37" d="M21.5,0.5v7c0,0.6,0.4,1,1,1h7L21.5,0.5z"/>
	<path class="st36" d="M29.5,9h-7C21.7,9,21,8.3,21,7.5v-7c0-0.2,0.1-0.4,0.3-0.5c0.2-0.1,0.4,0,0.5,0.1l8,8C30,8.3,30,8.5,30,8.7
		C29.9,8.9,29.7,9,29.5,9z M22,1.7v5.8C22,7.8,22.2,8,22.5,8h5.8L22,1.7z"/>
</g>
<g>
	<path class="st6" d="M10.1,14.8c0.4,0,0.8,0.1,1.1,0.2c0.3,0.1,0.5,0.3,0.7,0.6c0.2,0.2,0.3,0.5,0.4,0.8c0.1,0.3,0.1,0.6,0.1,0.9
		c0,0.4-0.1,0.8-0.2,1.2c-0.1,0.3-0.3,0.6-0.6,0.8c-0.2,0.2-0.5,0.4-0.9,0.5c-0.3,0.1-0.7,0.2-1.1,0.2H8.8v3.4H7v-8.6H10.1z
		 M9.5,18.7c0.3,0,0.6-0.1,0.8-0.3s0.3-0.5,0.3-1c0-0.4-0.1-0.8-0.3-1c-0.2-0.2-0.5-0.3-0.9-0.3H8.8v2.6H9.5z"/>
	<path class="st6" d="M15,14.8v3.3h2v-3.3h1.7v8.6H17v-3.8h-2v3.8h-1.7v-8.6H15z"/>
	<path class="st6" d="M23,14.8c0.4,0,0.8,0.1,1.1,0.2c0.3,0.1,0.5,0.3,0.7,0.6c0.2,0.2,0.3,0.5,0.4,0.8c0.1,0.3,0.1,0.6,0.1,0.9
		c0,0.4-0.1,0.8-0.2,1.2c-0.1,0.3-0.3,0.6-0.6,0.8c-0.2,0.2-0.5,0.4-0.9,0.5C23.4,19.9,23,20,22.6,20h-0.9v3.4h-1.7v-8.6H23z
		 M22.4,18.7c0.3,0,0.6-0.1,0.8-0.3s0.3-0.5,0.3-1c0-0.4-0.1-0.8-0.3-1c-0.2-0.2-0.5-0.3-0.9-0.3h-0.7v2.6H22.4z"/>
</g>
</svg>
